<svg width="79.000000" height="80.000000" viewBox="0 0 79 80" fill="none" xmlns="http://www.w3.org/2000/svg" xmlns:xlink="http://www.w3.org/1999/xlink">
	<desc>
			Created with Pixso.
	</desc>
	<defs/>
	<path id="Vector" d="M72.33 45.33C73.07 45.33 73.66 44.73 73.66 44L73.66 38.66C73.66 37.93 73.07 37.33 72.33 37.33L65.66 37.33L65.66 36C65.66 35.26 65.07 34.66 64.33 34.66C63.59 34.66 63 35.26 63 36L63 37.33L25.66 37.33L25.66 36C25.66 35.26 25.06 34.66 24.33 34.66C23.59 34.66 23 35.26 23 36L23 37.33L16.33 37.33C15.59 37.33 15 37.93 15 38.66L15 44C15 44.73 15.59 45.33 16.33 45.33L24.33 45.33L64.33 45.33L72.33 45.33ZM17.66 42.66L17.66 40L71 40L71 42.66L17.66 42.66Z" fill="#D4C17F" fill-opacity="1.000000" fill-rule="nonzero"/>
	<path id="Vector" d="M47 29.33C44.84 29.33 43.45 30.97 43.29 31.16C42.83 31.72 42.92 32.55 43.48 33.02C44.05 33.48 44.88 33.4 45.36 32.85C45.36 32.84 46.08 32 46.99 32C47.91 32 48.63 32.84 48.63 32.84C48.89 33.16 49.27 33.33 49.66 33.33C49.96 33.33 50.25 33.23 50.5 33.03C51.07 32.57 51.16 31.73 50.7 31.16C50.54 30.97 49.15 29.33 47 29.33Z" fill="#D4C17F" fill-opacity="1.000000" fill-rule="nonzero"/>
	<path id="Vector" d="M72.33 56C73.07 56 73.66 55.4 73.66 54.66L73.66 49.33C73.66 48.59 73.07 48 72.33 48L65.66 48L65.66 46.66C65.66 45.93 65.07 45.33 64.33 45.33C63.59 45.33 63 45.93 63 46.66L63 48L25.66 48L25.66 46.66C25.66 45.93 25.06 45.33 24.33 45.33C23.59 45.33 23 45.93 23 46.66L23 48L16.33 48C15.59 48 15 48.59 15 49.33L15 54.66C15 55.4 15.59 56 16.33 56L24.33 56L64.33 56L72.33 56ZM17.66 53.33L17.66 50.66L71 50.66L71 53.33L17.66 53.33Z" fill="#D4C17F" fill-opacity="1.000000" fill-rule="nonzero"/>
	<path id="Vector" d="M53.96 26.17C54.22 26.49 54.61 26.66 55 26.66C55.29 26.66 55.59 26.56 55.84 26.36C56.41 25.9 56.49 25.06 56.03 24.49C55.88 24.3 54.48 22.66 52.33 22.66C50.17 22.66 48.78 24.3 48.63 24.49C48.17 25.06 48.25 25.88 48.81 26.35C49.38 26.82 50.22 26.74 50.69 26.18C50.69 26.17 51.42 25.33 52.33 25.33C53.24 25.33 53.96 26.17 53.96 26.17Z" fill="#D4C17F" fill-opacity="1.000000" fill-rule="nonzero"/>
	<path id="Vector" d="M0.34 17.46C0.4 18.14 0.98 18.66 1.66 18.66L9.66 18.66C10.35 18.66 10.92 18.14 10.99 17.46L12.32 4.13C12.36 3.75 12.24 3.38 11.98 3.1C11.73 2.82 11.37 2.66 11 2.66L7 2.66L7 1.33C7 0.59 6.4 0 5.66 0C4.93 0 4.33 0.59 4.33 1.33L4.33 2.66L0.33 2.66C-0.05 2.66 -0.41 2.82 -0.66 3.1C-0.91 3.38 -1.04 3.75 -1 4.13L0.34 17.46ZM9.52 5.33L8.46 16L2.87 16L1.8 5.33L9.52 5.33Z" fill="#D4C17F" fill-opacity="1.000000" fill-rule="nonzero"/>
	<path id="Vector" d="M36.33 30.66C36.33 32.15 36.94 33.54 38.04 34.56C38.3 34.8 38.63 34.92 38.95 34.92C39.31 34.92 39.67 34.78 39.93 34.49C40.43 33.95 40.4 33.11 39.86 32.61C39.3 32.09 39 31.4 39 30.66C39 29.56 39.7 28.56 40.75 28.17C41.18 28.01 41.5 27.64 41.59 27.18C41.68 26.73 41.53 26.26 41.19 25.94C40.63 25.43 40.33 24.73 40.33 23.99C40.33 22.61 41.42 21.45 42.81 21.35C43.33 21.32 43.77 20.99 43.96 20.52C44.15 20.04 44.05 19.5 43.71 19.12C43.25 18.62 43 17.98 43 17.33C43 15.94 44.09 14.78 45.48 14.69C45.99 14.65 46.44 14.33 46.63 13.85C46.82 13.38 46.72 12.83 46.37 12.46C45.92 11.96 45.66 11.32 45.66 10.66C45.66 9.47 46.47 8.42 47.64 8.1C48 8 48.31 7.75 48.48 7.41C48.65 7.07 48.67 6.67 48.52 6.32C48.4 5.99 48.33 5.66 48.33 5.33C48.33 3.86 49.52 2.66 51 2.66C52.47 2.66 53.66 3.86 53.66 5.33C53.66 5.66 53.6 5.99 53.47 6.32C53.32 6.67 53.34 7.07 53.51 7.41C53.68 7.75 53.99 8 54.36 8.1C55.52 8.42 56.33 9.47 56.33 10.66C56.33 11.32 56.08 11.96 55.62 12.46C55.27 12.83 55.17 13.38 55.36 13.85C55.55 14.33 56 14.65 56.51 14.69C57.9 14.78 59 15.94 59 17.33C59 17.98 58.74 18.62 58.28 19.12C57.94 19.5 57.84 20.04 58.03 20.52C58.22 20.99 58.66 21.32 59.18 21.35C60.57 21.45 61.66 22.61 61.66 23.99C61.66 24.73 61.36 25.43 60.8 25.94C60.46 26.26 60.31 26.73 60.4 27.18C60.49 27.64 60.81 28.01 61.25 28.17C62.29 28.56 63 29.56 63 30.66C63 31.4 63.59 31.99 64.33 31.99C65.07 31.99 65.66 31.4 65.66 30.66C65.66 29.04 64.91 27.53 63.68 26.53C64.1 25.76 64.33 24.9 64.33 23.99C64.33 21.91 63.1 20.08 61.31 19.21C61.54 18.61 61.66 17.98 61.66 17.33C61.66 15.24 60.44 13.41 58.65 12.54C58.88 11.95 59 11.31 59 10.66C59 8.72 57.93 6.96 56.28 6.03C56.31 5.8 56.33 5.56 56.33 5.33C56.33 2.39 53.94 0 51 0C48.05 0 45.66 2.39 45.66 5.33C45.66 5.56 45.68 5.8 45.71 6.03C44.06 6.96 43 8.72 43 10.66C43 11.31 43.12 11.95 43.34 12.54C41.56 13.41 40.33 15.24 40.33 17.33C40.33 17.98 40.45 18.61 40.68 19.21C38.89 20.08 37.66 21.91 37.66 24C37.66 24.9 37.89 25.76 38.31 26.53C37.08 27.53 36.33 29.04 36.33 30.66Z" fill="#D4C17F" fill-opacity="1.000000" fill-rule="nonzero"/>
	<path id="Vector" d="M49.15 18.56C49.83 18.84 50.61 18.51 50.9 17.84C50.92 17.77 50.96 17.7 51 17.63C51.03 17.7 51.07 17.77 51.09 17.83C51.3 18.35 51.8 18.66 52.33 18.66C52.5 18.66 52.67 18.63 52.83 18.56C53.51 18.29 53.84 17.51 53.56 16.83C53.42 16.47 52.6 14.66 51 14.66C49.39 14.66 48.57 16.47 48.43 16.83C48.15 17.51 48.48 18.28 49.15 18.56Z" fill="#D4C17F" fill-opacity="1.000000" fill-rule="nonzero"/>
	<path id="Vector" d="M77.66 77.33L56.33 77.33C55.59 77.33 55 77.93 55 78.66C55 79.4 55.59 79.99 56.33 79.99L77.66 79.99C78.4 79.99 78.99 79.4 78.99 78.66C78.99 77.93 78.4 77.33 77.66 77.33Z" fill="#D4C17F" fill-opacity="1.000000" fill-rule="nonzero"/>
	<path id="Vector" d="M77.66 58.66L65.66 58.66L65.66 57.33C65.66 56.59 65.07 56 64.33 56C63.59 56 63 56.59 63 57.33L63 58.66L25.66 58.66L25.66 57.33C25.66 56.59 25.06 56 24.33 56C23.59 56 23 56.59 23 57.33L23 58.66L11 58.66C10.26 58.66 9.66 59.26 9.66 60L9.66 65.33C9.66 66.06 10.26 66.66 11 66.66L15 66.66L15 73.33C15 74.06 15.59 74.66 16.33 74.66C17.06 74.66 17.66 74.06 17.66 73.33L17.66 66.66L71 66.66L71 73.33C71 74.06 71.59 74.66 72.33 74.66C73.07 74.66 73.66 74.06 73.66 73.33L73.66 66.66L77.66 66.66C78.4 66.66 78.99 66.06 78.99 65.33L78.99 60C79 59.26 78.4 58.66 77.66 58.66ZM76.33 64L12.33 64L12.33 61.33L76.33 61.33L76.33 64Z" fill="#D4C17F" fill-opacity="1.000000" fill-rule="nonzero"/>
	<path id="Vector" d="M19 77.33L6.99 77.33L6.99 22.66C6.99 21.93 6.4 21.33 5.66 21.33C4.93 21.33 4.33 21.93 4.33 22.66L4.33 77.33L0.33 77.33C-0.41 77.33 -1 77.93 -1 78.66C-1 79.4 -0.41 80 0.33 80L19 80C19.73 80 20.33 79.4 20.33 78.66C20.33 77.93 19.73 77.33 19 77.33Z" fill="#D4C17F" fill-opacity="1.000000" fill-rule="nonzero"/>
	<path id="Vector" d="M51 77.33L48.33 77.33C47.59 77.33 47 77.93 47 78.66C47 79.4 47.59 79.99 48.33 79.99L51 79.99C51.73 79.99 52.33 79.4 52.33 78.66C52.33 77.93 51.73 77.33 51 77.33Z" fill="#D4C17F" fill-opacity="1.000000" fill-rule="nonzero"/>
	<path id="Vector" d="M40.33 77.33L27 77.33C26.26 77.33 25.66 77.93 25.66 78.66C25.66 79.4 26.26 80 27 80L40.33 80C41.07 80 41.66 79.4 41.66 78.66C41.66 77.93 41.07 77.33 40.33 77.33Z" fill="#D4C17F" fill-opacity="1.000000" fill-rule="nonzero"/>
</svg>
